<?xml version="1.0" standalone="no"?>
<!DOCTYPE svg PUBLIC "-//W3C//DTD SVG 20010904//EN"
 "http://www.w3.org/TR/2001/REC-SVG-20010904/DTD/svg10.dtd">
<svg version="1.0" xmlns="http://www.w3.org/2000/svg"
 width="512.000000pt" height="512.000000pt" viewBox="0 0 512.000000 512.000000"
 preserveAspectRatio="xMidYMid meet">

<g transform="translate(0.000000,512.000000) scale(0.100000,-0.100000)"
fill="#000000" stroke="none">
<path d="M2378 5105 c-232 -37 -479 -169 -638 -342 -200 -218 -407 -640 -484
-985 -50 -226 -73 -457 -55 -567 20 -130 85 -287 202 -496 56 -100 277 -438
378 -577 l41 -57 -208 -252 c-259 -312 -349 -417 -554 -645 -88 -98 -163 -188
-166 -199 -3 -12 -1 -32 5 -45 24 -58 599 -916 624 -930 44 -25 73 -5 181 125
55 66 236 280 401 475 165 195 334 394 374 443 40 48 77 87 81 87 4 0 88 -96
187 -213 98 -116 278 -329 399 -472 121 -143 254 -300 295 -350 83 -99 115
-118 156 -95 25 14 601 872 624 930 6 13 8 33 5 45 -3 11 -87 110 -187 220
-188 206 -491 546 -662 742 l-98 112 79 108 c330 455 525 818 561 1044 18 109
-5 344 -55 567 -77 345 -284 767 -484 985 -247 269 -629 400 -1002 342z m345
-160 c183 -32 356 -118 490 -244 38 -36 76 -80 83 -98 27 -63 16 -185 -28
-338 -21 -71 -112 -293 -127 -308 -5 -5 -35 5 -67 21 -160 81 -337 122 -518
122 -188 -1 -369 -47 -533 -136 -46 -24 -85 -44 -87 -44 -5 0 -78 187 -99 255
-42 134 -53 293 -28 392 11 45 23 62 90 126 221 211 525 304 824 252z m817
-727 c140 -291 219 -609 222 -893 2 -99 -1 -119 -30 -202 -54 -158 -164 -362
-335 -618 -112 -167 -218 -315 -225 -314 -9 0 -163 187 -380 457 l-162 203 45
62 c404 558 671 1032 755 1342 12 44 24 86 26 93 2 6 6 12 9 12 4 0 37 -64 75
-142z m-1886 25 c117 -583 801 -1533 2254 -3133 73 -79 132 -148 132 -153 0
-9 -455 -704 -474 -725 -10 -10 -25 2 -77 65 -35 43 -179 213 -319 378 -1142
1342 -1636 2020 -1782 2448 -29 83 -32 103 -30 202 2 198 54 468 128 675 32
86 144 334 149 328 2 -2 10 -40 19 -85z m1148 -331 c69 -19 258 -98 258 -109
0 -35 -506 -811 -530 -812 -7 -1 -178 237 -267 370 -79 117 -133 204 -204 326
l-48 82 27 19 c76 54 222 112 342 138 96 20 323 12 422 -14z m-565 -2364 c117
-147 213 -270 213 -274 0 -8 -156 -195 -500 -599 -140 -165 -284 -335 -319
-378 -52 -63 -67 -75 -77 -65 -20 21 -474 716 -474 725 0 5 32 45 71 88 247
276 377 428 633 738 l138 168 51 -68 c28 -37 147 -188 264 -335z"/>
</g>
</svg>
